<svg width="27" height="27" viewBox="0 0 27 27" fill="none" xmlns="http://www.w3.org/2000/svg">
<circle cx="13.5" cy="13.5" r="13.5" fill="#1B6652"/>
<path d="M16.5402 13.29L10.8802 7.64001C10.7873 7.54628 10.6767 7.47188 10.5548 7.42111C10.4329 7.37035 10.3022 7.34421 10.1702 7.34421C10.0382 7.34421 9.90751 7.37035 9.78565 7.42111C9.66379 7.47188 9.55319 7.54628 9.46023 7.64001C9.27398 7.82737 9.16943 8.08082 9.16943 8.34501C9.16943 8.60919 9.27398 8.86264 9.46023 9.05001L14.4102 14.05L9.46023 19C9.27398 19.1874 9.16943 19.4408 9.16943 19.705C9.16943 19.9692 9.27398 20.2226 9.46023 20.41C9.55284 20.5045 9.66329 20.5797 9.78516 20.6312C9.90704 20.6827 10.0379 20.7095 10.1702 20.71C10.3025 20.7095 10.4334 20.6827 10.5553 20.6312C10.6772 20.5797 10.7876 20.5045 10.8802 20.41L16.5402 14.76C16.6417 14.6664 16.7227 14.5527 16.7781 14.4262C16.8336 14.2997 16.8622 14.1631 16.8622 14.025C16.8622 13.8869 16.8336 13.7503 16.7781 13.6238C16.7227 13.4973 16.6417 13.3836 16.5402 13.29Z" fill="white"/>
</svg>
