<svg width="16" height="9" viewBox="0 0 16 9" fill="none" xmlns="http://www.w3.org/2000/svg">
<path d="M9.29874 8.48245L15.655 2.11495C15.7604 2.01037 15.8441 1.88594 15.9012 1.74885C15.9584 1.61176 15.9878 1.46471 15.9878 1.3162C15.9878 1.16769 15.9584 1.02064 15.9012 0.88355C15.8441 0.746459 15.7604 0.622033 15.655 0.517449C15.4442 0.307917 15.1591 0.190308 14.8619 0.190308C14.5647 0.190308 14.2795 0.307917 14.0687 0.517449L8.44374 6.0862L2.87499 0.517449C2.66421 0.307917 2.37907 0.190308 2.08186 0.190308C1.78466 0.190308 1.49952 0.307917 1.28874 0.517449C1.18244 0.621641 1.09787 0.745891 1.03994 0.883001C0.982007 1.02011 0.951859 1.16735 0.951241 1.3162C0.951859 1.46504 0.982007 1.61229 1.03994 1.7494C1.09787 1.88651 1.18244 2.01076 1.28874 2.11495L7.64499 8.48245C7.75034 8.59664 7.87819 8.68778 8.02051 8.75011C8.16282 8.81244 8.3165 8.84462 8.47186 8.84462C8.62723 8.84462 8.78091 8.81244 8.92322 8.75011C9.06553 8.68778 9.19339 8.59664 9.29874 8.48245V8.48245Z" fill="white"/>
</svg>
