<svg width="27" height="27" viewBox="0 0 27 27" fill="none" xmlns="http://www.w3.org/2000/svg">
<path d="M14.2988 17.4824L20.655 11.1149C20.7605 11.0104 20.8442 10.8859 20.9013 10.7488C20.9584 10.6118 20.9878 10.4647 20.9878 10.3162C20.9878 10.1677 20.9584 10.0206 20.9013 9.88355C20.8442 9.74646 20.7605 9.62203 20.655 9.51745C20.4442 9.30792 20.1591 9.19031 19.8619 9.19031C19.5647 9.19031 19.2796 9.30792 19.0688 9.51745L13.4438 15.0862L7.87502 9.51745C7.66424 9.30792 7.3791 9.19031 7.0819 9.19031C6.78469 9.19031 6.49955 9.30792 6.28877 9.51745C6.18247 9.62164 6.0979 9.74589 6.03997 9.883C5.98204 10.0201 5.95189 10.1674 5.95127 10.3162C5.95189 10.465 5.98204 10.6123 6.03997 10.7494C6.0979 10.8865 6.18247 11.0108 6.28877 11.1149L12.645 17.4824C12.7504 17.5966 12.8782 17.6878 13.0205 17.7501C13.1628 17.8124 13.3165 17.8446 13.4719 17.8446C13.6273 17.8446 13.7809 17.8124 13.9233 17.7501C14.0656 17.6878 14.1934 17.5966 14.2988 17.4824Z" fill="#292932"/>
</svg>
