<svg width="89" height="89" viewBox="0 0 89 89" fill="none" xmlns="http://www.w3.org/2000/svg">
<circle cx="44.5" cy="44.5" r="38" fill="#FFD100" stroke="#08070C" stroke-width="13"/>
<path d="M41.0833 43.25H44C44.3094 43.25 44.6062 43.1271 44.8249 42.9083C45.0437 42.6895 45.1667 42.3927 45.1667 42.0833C45.1667 41.7739 45.0437 41.4771 44.8249 41.2584C44.6062 41.0396 44.3094 40.9166 44 40.9166H42.8333V40.3333C42.8333 40.0239 42.7104 39.7271 42.4916 39.5084C42.2728 39.2896 41.9761 39.1666 41.6667 39.1666C41.3572 39.1666 41.0605 39.2896 40.8417 39.5084C40.6229 39.7271 40.5 40.0239 40.5 40.3333V40.975C39.7911 41.1189 39.1611 41.5211 38.7321 42.1035C38.3031 42.6858 38.1058 43.4068 38.1785 44.1264C38.2512 44.8461 38.5887 45.513 39.1255 45.9978C39.6622 46.4826 40.36 46.7507 41.0833 46.75H42.25C42.4047 46.75 42.5531 46.8114 42.6625 46.9208C42.7719 47.0302 42.8333 47.1786 42.8333 47.3333C42.8333 47.488 42.7719 47.6364 42.6625 47.7458C42.5531 47.8552 42.4047 47.9166 42.25 47.9166H39.3333C39.0239 47.9166 38.7272 48.0396 38.5084 48.2584C38.2896 48.4771 38.1667 48.7739 38.1667 49.0833C38.1667 49.3927 38.2896 49.6895 38.5084 49.9083C38.7272 50.1271 39.0239 50.25 39.3333 50.25H40.5V50.8333C40.5 51.1427 40.6229 51.4395 40.8417 51.6583C41.0605 51.8771 41.3572 52 41.6667 52C41.9761 52 42.2728 51.8771 42.4916 51.6583C42.7104 51.4395 42.8333 51.1427 42.8333 50.8333V50.1916C43.5422 50.0477 44.1722 49.6455 44.6012 49.0632C45.0302 48.4808 45.2275 47.7598 45.1548 47.0402C45.0821 46.3205 44.7446 45.6536 44.2078 45.1688C43.6711 44.684 42.9733 44.4159 42.25 44.4166H41.0833C40.9286 44.4166 40.7802 44.3552 40.6708 44.2458C40.5614 44.1364 40.5 43.988 40.5 43.8333C40.5 43.6786 40.5614 43.5302 40.6708 43.4208C40.7802 43.3114 40.9286 43.25 41.0833 43.25ZM54.5 45H51V34.5C51.0008 34.2944 50.9473 34.0923 50.8448 33.914C50.7424 33.7358 50.5947 33.5878 50.4167 33.485C50.2393 33.3826 50.0381 33.3287 49.8333 33.3287C49.6285 33.3287 49.4273 33.3826 49.25 33.485L45.75 35.4916L42.25 33.485C42.0726 33.3826 41.8714 33.3287 41.6667 33.3287C41.4619 33.3287 41.2607 33.3826 41.0833 33.485L37.5833 35.4916L34.0833 33.485C33.906 33.3826 33.7048 33.3287 33.5 33.3287C33.2952 33.3287 33.094 33.3826 32.9167 33.485C32.7386 33.5878 32.5909 33.7358 32.4885 33.914C32.386 34.0923 32.3325 34.2944 32.3333 34.5V53.1666C32.3333 54.0949 32.7021 54.9851 33.3584 55.6415C34.0148 56.2979 34.9051 56.6666 35.8333 56.6666H52.1667C53.0949 56.6666 53.9852 56.2979 54.6415 55.6415C55.2979 54.9851 55.6667 54.0949 55.6667 53.1666V46.1666C55.6667 45.8572 55.5437 45.5605 55.3249 45.3417C55.1062 45.1229 54.8094 45 54.5 45ZM35.8333 54.3333C35.5239 54.3333 35.2272 54.2104 35.0084 53.9916C34.7896 53.7728 34.6667 53.4761 34.6667 53.1666V36.5183L37 37.8483C37.18 37.9424 37.3802 37.9915 37.5833 37.9915C37.7865 37.9915 37.9866 37.9424 38.1667 37.8483L41.6667 35.8416L45.1667 37.8483C45.3467 37.9424 45.5468 37.9915 45.75 37.9915C45.9531 37.9915 46.1533 37.9424 46.3333 37.8483L48.6667 36.5183V53.1666C48.6698 53.5646 48.7408 53.9592 48.8767 54.3333H35.8333ZM53.3333 53.1666C53.3333 53.4761 53.2104 53.7728 52.9916 53.9916C52.7728 54.2104 52.4761 54.3333 52.1667 54.3333C51.8572 54.3333 51.5605 54.2104 51.3417 53.9916C51.1229 53.7728 51 53.4761 51 53.1666V47.3333H53.3333V53.1666Z" fill="black"/>
</svg>
