<svg width="63" height="63" viewBox="0 0 63 63" fill="none" xmlns="http://www.w3.org/2000/svg">
<circle cx="31.5" cy="31.5" r="31.5" fill="#FFD100"/>
<path d="M28.0834 30.25H31C31.3095 30.25 31.6062 30.1271 31.825 29.9083C32.0438 29.6895 32.1667 29.3927 32.1667 29.0833C32.1667 28.7739 32.0438 28.4771 31.825 28.2584C31.6062 28.0396 31.3095 27.9166 31 27.9166H29.8334V27.3333C29.8334 27.0239 29.7105 26.7271 29.4917 26.5084C29.2729 26.2896 28.9761 26.1666 28.6667 26.1666C28.3573 26.1666 28.0606 26.2896 27.8418 26.5084C27.623 26.7271 27.5 27.0239 27.5 27.3333V27.975C26.7912 28.1189 26.1611 28.5211 25.7321 29.1035C25.3032 29.6858 25.1059 30.4068 25.1786 31.1264C25.2512 31.8461 25.5887 32.513 26.1255 32.9978C26.6623 33.4826 27.3601 33.7507 28.0834 33.75H29.25C29.4048 33.75 29.5531 33.8114 29.6625 33.9208C29.7719 34.0302 29.8334 34.1786 29.8334 34.3333C29.8334 34.488 29.7719 34.6364 29.6625 34.7458C29.5531 34.8552 29.4048 34.9166 29.25 34.9166H26.3334C26.024 34.9166 25.7272 35.0396 25.5084 35.2584C25.2896 35.4771 25.1667 35.7739 25.1667 36.0833C25.1667 36.3927 25.2896 36.6895 25.5084 36.9083C25.7272 37.1271 26.024 37.25 26.3334 37.25H27.5V37.8333C27.5 38.1427 27.623 38.4395 27.8418 38.6583C28.0606 38.8771 28.3573 39 28.6667 39C28.9761 39 29.2729 38.8771 29.4917 38.6583C29.7105 38.4395 29.8334 38.1427 29.8334 37.8333V37.1916C30.5422 37.0477 31.1723 36.6455 31.6013 36.0632C32.0303 35.4808 32.2276 34.7598 32.1549 34.0402C32.0822 33.3205 31.7447 32.6536 31.2079 32.1688C30.6711 31.684 29.9734 31.4159 29.25 31.4166H28.0834C27.9287 31.4166 27.7803 31.3552 27.6709 31.2458C27.5615 31.1364 27.5 30.988 27.5 30.8333C27.5 30.6786 27.5615 30.5302 27.6709 30.4208C27.7803 30.3114 27.9287 30.25 28.0834 30.25ZM41.5 32H38V21.5C38.0009 21.2944 37.9473 21.0923 37.8449 20.914C37.7425 20.7358 37.5948 20.5878 37.4167 20.485C37.2394 20.3826 37.0382 20.3287 36.8334 20.3287C36.6286 20.3287 36.4274 20.3826 36.25 20.485L32.75 22.4916L29.25 20.485C29.0727 20.3826 28.8715 20.3287 28.6667 20.3287C28.4619 20.3287 28.2607 20.3826 28.0834 20.485L24.5834 22.4916L21.0834 20.485C20.906 20.3826 20.7048 20.3287 20.5 20.3287C20.2953 20.3287 20.0941 20.3826 19.9167 20.485C19.7387 20.5878 19.591 20.7358 19.4885 20.914C19.3861 21.0923 19.3326 21.2944 19.3334 21.5V40.1666C19.3334 41.0949 19.7021 41.9851 20.3585 42.6415C21.0149 43.2979 21.9051 43.6666 22.8334 43.6666H39.1667C40.095 43.6666 40.9852 43.2979 41.6416 42.6415C42.298 41.9851 42.6667 41.0949 42.6667 40.1666V33.1666C42.6667 32.8572 42.5438 32.5605 42.325 32.3417C42.1062 32.1229 41.8095 32 41.5 32ZM22.8334 41.3333C22.524 41.3333 22.2272 41.2104 22.0084 40.9916C21.7896 40.7728 21.6667 40.4761 21.6667 40.1666V23.5183L24.0001 24.8483C24.1801 24.9424 24.3802 24.9915 24.5834 24.9915C24.7865 24.9915 24.9867 24.9424 25.1667 24.8483L28.6667 22.8416L32.1667 24.8483C32.3468 24.9424 32.5469 24.9915 32.75 24.9915C32.9532 24.9915 33.1533 24.9424 33.3334 24.8483L35.6667 23.5183V40.1666C35.6699 40.5646 35.7409 40.9592 35.8767 41.3333H22.8334ZM40.3334 40.1666C40.3334 40.4761 40.2105 40.7728 39.9917 40.9916C39.7729 41.2104 39.4761 41.3333 39.1667 41.3333C38.8573 41.3333 38.5605 41.2104 38.3418 40.9916C38.123 40.7728 38 40.4761 38 40.1666V34.3333H40.3334V40.1666Z" fill="black"/>
</svg>
