<svg width="89" height="89" viewBox="0 0 89 89" fill="none" xmlns="http://www.w3.org/2000/svg">
<circle cx="44.5" cy="44.5" r="38" fill="#FFD100" stroke="#08070C" stroke-width="13"/>
<path fill-rule="evenodd" clip-rule="evenodd" d="M42.299 57.9994C43.2488 58.9267 44.7781 58.9154 45.7214 57.9672L46.8837 56.8081C47.7851 55.9081 49.0311 55.3946 50.3012 55.3946H51.9593C53.3018 55.3946 54.3933 54.3031 54.3933 52.962V51.3055C54.3933 50.0159 54.8923 48.8037 55.8034 47.8909L56.9625 46.7302C57.4341 46.2569 57.6869 45.6435 57.6853 44.9931C57.6837 44.3443 57.4277 43.7342 56.9657 43.2737L55.805 42.1114C54.8923 41.1921 54.3933 39.9815 54.3933 38.692V37.0386C54.3933 35.696 53.3018 34.6045 51.9593 34.6045H50.3044C49.015 34.6045 47.8028 34.1038 46.8901 33.1974L45.7278 32.0335C44.7604 31.0756 43.2166 31.0804 42.2716 32.0319L41.1142 33.1926C40.1902 34.1054 38.978 34.6045 37.6934 34.6045H36.037C34.696 34.6061 33.6046 35.6976 33.6046 37.0386V38.6888C33.6046 39.9783 33.104 41.1905 32.196 42.105L31.0531 43.2496C31.0418 43.2625 31.0306 43.2721 31.0193 43.2834C30.0744 44.2348 30.0792 45.7787 31.0306 46.7237L32.1928 47.8861C33.104 48.8005 33.6046 50.0127 33.6046 51.3022V52.962C33.6046 54.3031 34.6944 55.3946 36.037 55.3946H37.6902C38.9813 55.3962 40.1934 55.8969 41.1062 56.8065L42.2668 57.964C42.2765 57.9752 42.2877 57.9865 42.299 57.9994ZM43.9957 61.1C42.761 61.1 41.5263 60.6332 40.5814 59.6962C40.5685 59.6833 40.5556 59.6704 40.5427 59.656L39.3998 58.5145C38.9442 58.0622 38.3357 57.811 37.6886 57.8094H36.037C33.3631 57.8094 31.1899 55.6345 31.1899 52.962V51.3022C31.1899 50.6551 30.9372 50.0481 30.4832 49.5909L29.3258 48.435C27.4456 46.5643 27.4231 43.5184 29.2695 41.6188C29.284 41.6043 29.2984 41.5898 29.3129 41.5753L30.4849 40.4001C30.9372 39.9445 31.1899 39.3343 31.1899 38.6888V37.0386C31.1899 34.3662 33.3631 32.1913 36.0354 32.1896H37.6934C38.339 32.1896 38.9475 31.9369 39.4095 31.4813L40.5605 30.327C42.4423 28.4322 45.5186 28.4225 47.4165 30.3093L48.5932 31.4861C49.0488 31.9385 49.6573 32.1896 50.3044 32.1896H51.9593C54.6331 32.1896 56.8079 34.3646 56.8079 37.0386V38.692C56.8079 39.3376 57.0591 39.9477 57.5146 40.4065L58.6704 41.564C59.5864 42.4736 60.0951 43.6891 60.0999 44.985C60.1048 46.281 59.6041 47.4997 58.6914 48.4189L57.5114 49.5958C57.0591 50.0514 56.8079 50.6583 56.8079 51.3055V52.962C56.8079 55.6345 54.6331 57.8094 51.9609 57.8094H50.3012C49.6637 57.8094 49.0408 58.067 48.5884 58.5162L47.4326 59.672C46.4877 60.6235 45.2417 61.1 43.9957 61.1Z" fill="black"/>
<path fill-rule="evenodd" clip-rule="evenodd" d="M38.3609 40.9727C38.3609 41.8629 39.0885 42.5826 39.9787 42.5826C40.8689 42.5826 41.5885 41.8629 41.5885 40.9727C41.5885 40.0824 40.8689 39.3628 39.9787 39.3628H39.9642C39.074 39.3628 38.3609 40.0824 38.3609 40.9727ZM39.8608 50.3459C39.5518 50.3459 39.2427 50.2284 39.0077 49.9918C38.536 49.5201 38.536 48.757 39.0077 48.2853L47.2819 40.0088C47.7536 39.5371 48.5182 39.5371 48.9899 40.0088C49.4616 40.4805 49.4616 41.2452 48.9899 41.7169L40.714 49.9918C40.479 50.2284 40.1699 50.3459 39.8608 50.3459ZM48.0276 50.632C47.1374 50.632 46.4097 49.9124 46.4097 49.0221C46.4097 48.1319 47.1229 47.4122 48.0131 47.4122H48.0276C48.9178 47.4122 49.6373 48.1319 49.6373 49.0221C49.6373 49.9124 48.9178 50.632 48.0276 50.632Z" fill="black"/>
</svg>
