<svg width="63" height="63" viewBox="0 0 63 63" fill="none" xmlns="http://www.w3.org/2000/svg">
<circle cx="31.5" cy="31.5" r="31.5" fill="#FFD100"/>
<path fill-rule="evenodd" clip-rule="evenodd" d="M29.299 44.9994C30.2488 45.9267 31.7781 45.9154 32.7214 44.9672L33.8837 43.8081C34.7852 42.9081 36.0311 42.3946 37.3012 42.3946H38.9593C40.3019 42.3946 41.3933 41.3031 41.3933 39.962V38.3055C41.3933 37.0159 41.8923 35.8037 42.8035 34.8909L43.9625 33.7302C44.4342 33.2569 44.6869 32.6435 44.6853 31.9931C44.6837 31.3443 44.4277 30.7342 43.9657 30.2737L42.8051 29.1114C41.8923 28.1921 41.3933 26.9815 41.3933 25.692V24.0386C41.3933 22.696 40.3019 21.6045 38.9593 21.6045H37.3045C36.015 21.6045 34.8029 21.1038 33.8901 20.1974L32.7279 19.0335C31.7604 18.0756 30.2166 18.0804 29.2717 19.0319L28.1142 20.1926C27.1902 21.1054 25.9781 21.6045 24.6935 21.6045H23.037C21.6961 21.6061 20.6046 22.6976 20.6046 24.0386V25.6888C20.6046 26.9783 20.104 28.1905 19.1961 29.105L18.0531 30.2496C18.0419 30.2625 18.0306 30.2721 18.0193 30.2834C17.0744 31.2348 17.0792 32.7787 18.0306 33.7237L19.1929 34.8861C20.104 35.8005 20.6046 37.0127 20.6046 38.3022V39.962C20.6046 41.3031 21.6944 42.3946 23.037 42.3946H24.6902C25.9813 42.3962 27.1934 42.8969 28.1062 43.8065L29.2668 44.964C29.2765 44.9752 29.2878 44.9865 29.299 44.9994ZM30.9957 48.1C29.761 48.1 28.5263 47.6332 27.5814 46.6962C27.5685 46.6833 27.5556 46.6704 27.5428 46.656L26.3998 45.5145C25.9443 45.0622 25.3358 44.811 24.6886 44.8094H23.037C20.3632 44.8094 18.19 42.6345 18.19 39.962V38.3022C18.19 37.6551 17.9372 37.0481 17.4833 36.5909L16.3258 35.435C14.4456 33.5643 14.4231 30.5184 16.2695 28.6188C16.284 28.6043 16.2985 28.5898 16.313 28.5753L17.4849 27.4001C17.9372 26.9445 18.19 26.3343 18.19 25.6888V24.0386C18.19 21.3662 20.3632 19.1913 23.0354 19.1896H24.6935C25.339 19.1896 25.9475 18.9369 26.4095 18.4813L27.5605 17.327C29.4423 15.4322 32.5186 15.4225 34.4165 17.3093L35.5933 18.4861C36.0488 18.9385 36.6573 19.1896 37.3045 19.1896H38.9593C41.6332 19.1896 43.808 21.3646 43.808 24.0386V25.692C43.808 26.3376 44.0591 26.9477 44.5147 27.4065L45.6705 28.564C46.5864 29.4736 47.0951 30.6891 47.1 31.985C47.1048 33.281 46.6041 34.4997 45.6914 35.4189L44.5114 36.5958C44.0591 37.0514 43.808 37.6583 43.808 38.3055V39.962C43.808 42.6345 41.6332 44.8094 38.9609 44.8094H37.3012C36.6638 44.8094 36.0408 45.067 35.5884 45.5162L34.4326 46.672C33.4877 47.6235 32.2417 48.1 30.9957 48.1Z" fill="black"/>
<path fill-rule="evenodd" clip-rule="evenodd" d="M25.3608 27.9727C25.3608 28.8629 26.0885 29.5826 26.9787 29.5826C27.8689 29.5826 28.5884 28.8629 28.5884 27.9727C28.5884 27.0824 27.8689 26.3628 26.9787 26.3628H26.9642C26.074 26.3628 25.3608 27.0824 25.3608 27.9727ZM26.8608 37.3459C26.5518 37.3459 26.2427 37.2284 26.0076 36.9918C25.536 36.5201 25.536 35.757 26.0076 35.2853L34.2819 27.0088C34.7536 26.5371 35.5182 26.5371 35.9899 27.0088C36.4615 27.4805 36.4615 28.2452 35.9899 28.7169L27.714 36.9918C27.479 37.2284 27.1699 37.3459 26.8608 37.3459ZM35.0276 37.632C34.1373 37.632 33.4097 36.9124 33.4097 36.0221C33.4097 35.1319 34.1229 34.4122 35.0131 34.4122H35.0276C35.9178 34.4122 36.6373 35.1319 36.6373 36.0221C36.6373 36.9124 35.9178 37.632 35.0276 37.632Z" fill="black"/>
</svg>
