<svg width="63" height="63" viewBox="0 0 63 63" fill="none" xmlns="http://www.w3.org/2000/svg">
<circle cx="31.5" cy="31.5" r="31.5" fill="#FFD100"/>
<path d="M48.4974 24.405V24.4937L48.5533 24.5625C48.9989 25.1118 49.323 25.7494 49.504 26.4332C49.6848 27.1165 49.7188 27.8304 49.6035 28.5279C49.6034 28.5283 49.6034 28.5287 49.6033 28.5292L48.0637 37.2767C47.8578 38.4476 47.2414 39.5068 46.325 40.2643C45.4087 41.0218 44.2525 41.428 43.0637 41.41L43.0637 41.41H43.0599H29.1655C28.4379 41.4084 27.7194 41.2479 27.0602 40.9399C26.401 40.6319 25.8169 40.1837 25.3488 39.6267L25.3487 39.6265C24.8781 39.0676 24.5358 38.4123 24.3457 37.7068C24.1557 37.0014 24.1226 36.2628 24.2487 35.5432L25.7887 26.7933L25.7887 26.7933L25.7896 26.7874C25.9612 25.6535 26.5269 24.6162 27.3873 23.858C28.3098 23.0527 29.4957 22.614 30.7202 22.625V22.625H30.7224H44.5999V22.625L44.6039 22.625C45.358 22.6129 46.105 22.7715 46.789 23.089C47.4464 23.3941 48.0292 23.8383 48.4974 24.3905V24.405ZM44.11 26.0691L44.6571 25.625H43.9524H31.5099H30.9559L31.3225 26.0404L35.3993 30.6597C35.3995 30.6598 35.3996 30.66 35.3997 30.6601C35.7398 31.0484 36.2168 31.2902 36.731 31.3349C37.2455 31.3797 37.7573 31.2237 38.1593 30.8997L38.16 30.8991L44.11 26.0691ZM29.1628 38.375H29.1649H43.0407C43.5165 38.3815 43.979 38.2181 44.3452 37.9141C44.7119 37.6098 44.9578 37.1846 45.0388 36.7151C45.0388 36.715 45.0388 36.715 45.0388 36.715L46.4737 28.5432L46.5899 27.8811L46.0693 28.3064L40.0501 33.2232C40.05 33.2233 40.0499 33.2234 40.0498 33.2235C39.0467 34.0354 37.7687 34.428 36.4828 34.3193C35.1968 34.2106 34.0027 33.6088 33.1501 32.6399L33.1498 32.6395L29.0373 27.9845L28.6939 27.5958L28.6038 28.1065L27.2037 36.034L27.2035 36.0357C27.155 36.3215 27.1693 36.6144 27.2453 36.8941C27.3212 37.1737 27.457 37.4334 27.6432 37.6554C27.829 37.8784 28.0611 38.0583 28.3235 38.1825C28.586 38.3069 28.8724 38.3726 29.1628 38.375ZM15.8824 29.625H19.3824C19.7803 29.625 20.1618 29.783 20.4431 30.0643C20.7244 30.3456 20.8824 30.7272 20.8824 31.125C20.8824 31.5228 20.7244 31.9044 20.4431 32.1857C20.1618 32.467 19.7803 32.625 19.3824 32.625H15.8824C15.4846 32.625 15.1031 32.467 14.8218 32.1857C14.5405 31.9044 14.3824 31.5228 14.3824 31.125C14.3824 30.7272 14.5405 30.3456 14.8218 30.0643C15.1031 29.783 15.4846 29.625 15.8824 29.625ZM15.8824 22.625H21.1324C21.5303 22.625 21.9118 22.783 22.1931 23.0643C22.4744 23.3456 22.6324 23.7272 22.6324 24.125C22.6324 24.5228 22.4744 24.9044 22.1931 25.1857C21.9118 25.467 21.5303 25.625 21.1324 25.625H15.8824C15.4846 25.625 15.1031 25.467 14.8218 25.1857C14.5405 24.9044 14.3824 24.5228 14.3824 24.125C14.3824 23.7272 14.5405 23.3456 14.8218 23.0643C15.1031 22.783 15.4846 22.625 15.8824 22.625Z" fill="black" stroke="#FFD100" stroke-width="0.5"/>
</svg>
