<svg width="89" height="89" viewBox="0 0 89 89" fill="none" xmlns="http://www.w3.org/2000/svg">
<circle cx="44.5" cy="44.5" r="38" fill="#FFD100" stroke="#08070C" stroke-width="13"/>
<path d="M61.7475 37.405L61.5534 37.5625C61.999 38.1118 62.323 38.7494 62.504 39.4332C62.6849 40.1165 62.7188 40.8304 62.6036 41.5279C62.6035 41.5283 62.6034 41.5287 62.6034 41.5292L61.0638 50.2767C60.8578 51.4476 60.2414 52.5068 59.3251 53.2643C58.4088 54.0218 57.2525 54.428 56.0638 54.41L56.0638 54.41H56.06H42.1656C41.438 54.4084 40.7195 54.2479 40.0603 53.9399C39.401 53.6319 38.817 53.1837 38.3489 52.6267L38.3488 52.6265C37.8782 52.0676 37.5359 51.4123 37.3458 50.7068C37.1558 50.0014 37.1226 49.2628 37.2488 48.5432L38.7887 39.7933L38.7888 39.7933L38.7897 39.7874C38.9613 38.6535 39.527 37.6162 40.3874 36.858C41.3099 36.0527 42.4958 35.614 43.7203 35.625V35.625H43.7225H57.6V35.625L57.604 35.625C58.358 35.6129 59.105 35.7715 59.7891 36.089C60.4464 36.3941 61.0293 36.8383 61.4975 37.3905V37.405H61.5098C61.5246 37.4227 61.5394 37.4404 61.554 37.4583L61.6192 37.405H61.7475ZM57.1101 39.0691L57.6571 38.625H56.9525H44.51H43.9559L44.3226 39.0404L48.3994 43.6597C48.3995 43.6598 48.3996 43.66 48.3998 43.6601C48.7398 44.0484 49.2169 44.2902 49.7311 44.3349C50.2455 44.3797 50.7573 44.2237 51.1594 43.8997L51.1601 43.8991L57.1101 39.0691ZM42.1629 51.375H42.165H56.0408C56.5166 51.3815 56.9791 51.2181 57.3453 50.9141C57.7119 50.6098 57.9579 50.1846 58.0389 49.7151C58.0389 49.715 58.0389 49.715 58.0389 49.715L59.4737 41.5432L59.59 40.8811L59.0694 41.3064L53.0502 46.2232C53.0501 46.2233 53.05 46.2233 53.0499 46.2234C52.0469 47.0353 50.7688 47.428 49.4829 47.3193C48.1969 47.2106 47.0027 46.6088 46.1502 45.6399L46.1499 45.6395L42.0374 40.9845L41.694 40.5958L41.6038 41.1065L40.2038 49.034L40.2035 49.0357C40.1551 49.3215 40.1694 49.6144 40.2453 49.8941C40.3213 50.1737 40.457 50.4334 40.6432 50.6554C40.829 50.8784 41.0612 51.0583 41.3235 51.1825C41.586 51.3069 41.8725 51.3726 42.1629 51.375ZM28.8825 42.625H32.3825C32.7803 42.625 33.1619 42.783 33.4432 43.0643C33.7245 43.3456 33.8825 43.7272 33.8825 44.125C33.8825 44.5228 33.7245 44.9044 33.4432 45.1857C33.1619 45.467 32.7803 45.625 32.3825 45.625H28.8825C28.4847 45.625 28.1032 45.467 27.8218 45.1857C27.5405 44.9044 27.3825 44.5228 27.3825 44.125C27.3825 43.7272 27.5405 43.3456 27.8218 43.0643C28.1032 42.783 28.4847 42.625 28.8825 42.625ZM28.8825 35.625H34.1325C34.5303 35.625 34.9119 35.783 35.1932 36.0643C35.4745 36.3456 35.6325 36.7272 35.6325 37.125C35.6325 37.5228 35.4745 37.9044 35.1932 38.1857C34.9119 38.467 34.5303 38.625 34.1325 38.625H28.8825C28.4847 38.625 28.1032 38.467 27.8218 38.1857C27.5405 37.9044 27.3825 37.5228 27.3825 37.125C27.3825 36.7272 27.5405 36.3456 27.8218 36.0643C28.1032 35.783 28.4847 35.625 28.8825 35.625Z" fill="black" stroke="#FFD100" stroke-width="0.5"/>
</svg>
