<svg width="2567" height="208" viewBox="0 0 2567 208" fill="none" xmlns="http://www.w3.org/2000/svg">
<mask id="mask0_314_5" style="mask-type:alpha" maskUnits="userSpaceOnUse" x="1026" y="0" width="449" height="16">
<path d="M1026 9.99999C1026 4.47715 1030.48 0 1036 0H1464.4C1469.93 0 1474.4 4.47715 1474.4 10V15.5138H1026V9.99999Z" fill="#FFD100"/>
</mask>
<g mask="url(#mask0_314_5)">
<path d="M1026 9.99999C1026 4.47715 1030.48 0 1036 0H1455.77C1461.29 0 1465.77 4.47715 1465.77 10V15.5138H1026V9.99999Z" fill="#FFD100"/>
<path d="M1063.6 -12.7236C1066.05 -15.5341 1070.69 -16.3411 1073.95 -14.5259V-14.5259C1077.21 -12.7108 1077.86 -8.96098 1075.41 -6.15046L1050.77 22.0573L1038.96 15.4842L1063.6 -12.7236Z" fill="black"/>
<path d="M1104.62 -11.5742C1107.08 -14.3847 1111.71 -15.1916 1114.97 -13.3765V-13.3765C1118.23 -11.5614 1118.89 -7.81156 1116.43 -5.00105L1091.79 23.2068L1079.99 16.6336L1104.62 -11.5742Z" fill="black"/>
<path d="M1145.65 -10.4248C1148.1 -13.2353 1152.74 -14.0422 1156 -12.2271V-12.2271C1159.26 -10.412 1159.91 -6.66215 1157.46 -3.85163L1132.82 24.3562L1121.01 17.783L1145.65 -10.4248Z" fill="black"/>
<path d="M1186.67 -9.27634C1189.13 -12.0869 1193.76 -12.8938 1197.02 -11.0787V-11.0787C1200.28 -9.26354 1200.94 -5.51371 1198.48 -2.70319L1173.84 25.5046L1162.04 18.9315L1186.67 -9.27634Z" fill="black"/>
<path d="M1227.7 -8.12693C1230.16 -10.9374 1234.79 -11.7444 1238.05 -9.92925V-9.92925C1241.31 -8.11412 1241.96 -4.3643 1239.51 -1.55378L1214.87 26.654L1203.06 20.0809L1227.7 -8.12693Z" fill="black"/>
<path d="M1268.73 -6.97751C1271.18 -9.78803 1275.81 -10.595 1279.07 -8.77983V-8.77983C1282.33 -6.96471 1282.99 -3.21488 1280.53 -0.404367L1255.89 27.8034L1244.09 21.2303L1268.73 -6.97751Z" fill="black"/>
<path d="M1309.75 -5.82907C1312.21 -8.63959 1316.84 -9.44652 1320.1 -7.63139V-7.63139C1323.36 -5.81627 1324.01 -2.06645 1321.56 0.744071L1296.92 28.9519L1285.11 22.3787L1309.75 -5.82907Z" fill="black"/>
<path d="M1350.78 -4.67868C1353.23 -7.4892 1357.86 -8.29613 1361.12 -6.481V-6.481C1364.38 -4.66588 1365.04 -0.916056 1362.58 1.89446L1337.94 30.1023L1326.14 23.5291L1350.78 -4.67868Z" fill="black"/>
<path d="M1391.8 -3.53025C1394.26 -6.34076 1398.89 -7.14769 1402.15 -5.33257V-5.33257C1405.41 -3.51744 1406.06 0.232381 1403.61 3.0429L1378.97 31.2507L1367.16 24.6775L1391.8 -3.53025Z" fill="black"/>
<path d="M1432.83 -2.38083C1435.28 -5.19135 1439.91 -5.99828 1443.17 -4.18315V-4.18315C1446.44 -2.36803 1447.09 1.3818 1444.63 4.19231L1419.99 32.4001L1408.19 25.827L1432.83 -2.38083Z" fill="black"/>
</g>
<path d="M972.005 90.7842C972.005 85.2613 976.482 80.7842 982.005 80.7842H1001V110.784H982.005C976.482 110.784 972.005 106.307 972.005 100.784V90.7842Z" fill="#FFD100"/>
<line x1="3.49691e-07" y1="95" x2="693" y2="95.0001" stroke="#FFD100" stroke-width="8"/>
<line x1="812.985" y1="95.7061" x2="956.995" y2="94.9996" stroke="#FFD100" stroke-width="8"/>
<rect x="956.005" y="88.7842" width="19" height="15" fill="#FFD100"/>
<path d="M993.505 88.2842L996.505 96.2842L993.505 104.284" stroke="black" stroke-width="3" stroke-linecap="round"/>
<line x1="1004" y1="79.7842" x2="1004" y2="111.784" stroke="#FFD100" stroke-width="6" stroke-linecap="round"/>
<line x1="987.505" y1="88.2842" x2="987.505" y2="104.284" stroke="black" stroke-width="3" stroke-linecap="round"/>
<line x1="981.505" y1="88.2842" x2="981.505" y2="104.284" stroke="black" stroke-width="3" stroke-linecap="round"/>
<line x1="997.176" y1="25.51" x2="1007.04" y2="43.8753" stroke="#FFD100" stroke-width="2.5" stroke-linecap="round"/>
<line x1="984.445" y1="48.4839" x2="998.153" y2="64.1876" stroke="#FFD100" stroke-width="2.5" stroke-linecap="round"/>
<line x1="986.738" y1="146.851" x2="999.078" y2="130.052" stroke="#FFD100" stroke-width="2.5" stroke-linecap="round"/>
<line x1="1011.84" y1="144.39" x2="1004.61" y2="163.941" stroke="#FFD100" stroke-width="2.5" stroke-linecap="round"/>
<mask id="mask1_314_5" style="mask-type:alpha" maskUnits="userSpaceOnUse" x="1026" y="192" width="449" height="16">
<path d="M1026 192.486H1474.4V198C1474.4 203.523 1469.93 208 1464.4 208H1036C1030.48 208 1026 203.523 1026 198V192.486Z" fill="#FFD100"/>
</mask>
<g mask="url(#mask1_314_5)">
<path d="M1026 192.486H1465.77V198C1465.77 203.523 1461.29 208 1455.77 208H1036C1030.48 208 1026 203.523 1026 198V192.486Z" fill="#FFD100"/>
<path d="M1068.04 174.674L1079.85 181.247L1055.21 209.455C1052.76 212.265 1048.12 213.072 1044.86 211.257V211.257C1041.6 209.442 1040.95 205.692 1043.41 202.882L1068.04 174.674Z" fill="black"/>
<path d="M1109.07 175.822L1120.88 182.395L1096.24 210.603C1093.78 213.414 1089.15 214.221 1085.89 212.406V212.406C1082.63 210.59 1081.98 206.841 1084.43 204.03L1109.07 175.822Z" fill="black"/>
<path d="M1150.09 176.973L1161.9 183.546L1137.26 211.754C1134.81 214.564 1130.17 215.371 1126.91 213.556V213.556C1123.65 211.741 1123 207.991 1125.46 205.18L1150.09 176.973Z" fill="black"/>
<path d="M1191.12 178.121L1202.93 184.694L1178.29 212.902C1175.83 215.713 1171.2 216.519 1167.94 214.704V214.704C1164.68 212.889 1164.03 209.139 1166.48 206.329L1191.12 178.121Z" fill="black"/>
<path d="M1232.15 179.271L1243.95 185.844L1219.31 214.051C1216.86 216.862 1212.23 217.669 1208.96 215.854V215.854C1205.7 214.039 1205.05 210.289 1207.51 207.478L1232.15 179.271Z" fill="black"/>
<path d="M1273.17 180.42L1284.98 186.993L1260.34 215.201C1257.88 218.011 1253.25 218.818 1249.99 217.003V217.003C1246.73 215.188 1246.08 211.438 1248.53 208.628L1273.17 180.42Z" fill="black"/>
<path d="M1314.2 181.568L1326 188.142L1301.36 216.349C1298.91 219.16 1294.28 219.967 1291.01 218.152V218.152C1287.75 216.336 1287.1 212.587 1289.56 209.776L1314.2 181.568Z" fill="black"/>
<path d="M1355.22 182.718L1367.03 189.291L1342.39 217.499C1339.93 220.309 1335.3 221.116 1332.04 219.301V219.301C1328.78 217.486 1328.13 213.736 1330.58 210.926L1355.22 182.718Z" fill="black"/>
<path d="M1396.25 183.867L1408.05 190.44L1383.41 218.648C1380.96 221.459 1376.33 222.266 1373.07 220.45V220.45C1369.8 218.635 1369.15 214.886 1371.61 212.075L1396.25 183.867Z" fill="black"/>
<path d="M1437.27 185.017L1449.08 191.59L1424.44 219.798C1421.98 222.608 1417.35 223.415 1414.09 221.6V221.6C1410.83 219.785 1410.18 216.035 1412.63 213.224L1437.27 185.017Z" fill="black"/>
</g>
<rect x="1517" y="86.7236" width="19" height="15" fill="#FFD100"/>
<path d="M1519.44 100.76C1519.46 106.283 1515 110.779 1509.48 110.804L1490.48 110.887L1490.35 80.8873L1509.35 80.8039C1514.87 80.7797 1519.37 85.2372 1519.39 90.76L1519.44 100.76Z" fill="#FFD100"/>
<line x1="1487.48" y1="111.9" x2="1487.34" y2="79.9002" stroke="#FFD100" stroke-width="6" stroke-linecap="round"/>
<line x1="1494.55" y1="166.144" x2="1484.61" y2="147.822" stroke="#FFD100" stroke-width="2.5" stroke-linecap="round"/>
<line x1="1507.18" y1="143.114" x2="1493.4" y2="127.47" stroke="#FFD100" stroke-width="2.5" stroke-linecap="round"/>
<line x1="1485.95" y1="89.6646" x2="1477.99" y2="89.4331" stroke="#FFD100" stroke-width="4" stroke-linecap="round"/>
<line x1="1485.91" y1="103.012" x2="1477.95" y2="102.781" stroke="#FFD100" stroke-width="4" stroke-linecap="round"/>
<line x1="1504.46" y1="44.758" x2="1492.19" y2="61.6115" stroke="#FFD100" stroke-width="2.5" stroke-linecap="round"/>
<line x1="1479.36" y1="47.3289" x2="1486.51" y2="27.7462" stroke="#FFD100" stroke-width="2.5" stroke-linecap="round"/>
<path d="M1491.2 99.2488L1505.06 93.6676L1505.39 103.925L1491.2 99.2488Z" fill="black"/>
<path d="M1502.85 89.6076L1515.26 94.7318L1502.44 98.7078L1502.85 89.6076Z" fill="black" stroke="black"/>
<path d="M689.005 99.32C689.005 22.5117 709.873 71.7087 712.559 99.32C723.097 170.107 736.194 127.435 739.213 99.32C747.891 18.4955 755.949 69.7007 758.739 99.32C768.16 159.162 782.086 124.254 787.872 99.32C806.219 18.595 817.005 63.1756 817.005 99.32" stroke="#FFD100" stroke-width="8"/>
<line x1="1535.02" y1="94.335" x2="1678.02" y2="94.9954" stroke="#FFD100" stroke-width="8"/>
<line x1="1788" y1="95" x2="2500" y2="95" stroke="#FFD100" stroke-width="8"/>
<path d="M1674.05 93.5098C1673.98 57.4704 1693.28 80.5173 1695.78 93.4681C1705.57 126.663 1717.62 106.618 1720.38 93.4209C1728.31 55.4818 1735.79 79.4936 1738.39 93.3864C1747.14 121.448 1759.96 105.044 1765.28 93.3348C1782.14 55.4252 1792.13 76.3239 1792.16 93.2833" stroke="#FFD100" stroke-width="8"/>
<path d="M1119.63 94V73H1128.27C1130.13 73 1131.72 73.3 1133.04 73.9C1134.38 74.5 1135.41 75.36 1136.13 76.48C1136.85 77.6 1137.21 78.93 1137.21 80.47C1137.21 82.01 1136.85 83.34 1136.13 84.46C1135.41 85.58 1134.38 86.44 1133.04 87.04C1131.72 87.64 1130.13 87.94 1128.27 87.94H1121.79L1123.53 86.11V94H1119.63ZM1123.53 86.53L1121.79 84.64H1128.09C1129.81 84.64 1131.1 84.28 1131.96 83.56C1132.84 82.82 1133.28 81.79 1133.28 80.47C1133.28 79.13 1132.84 78.1 1131.96 77.38C1131.1 76.66 1129.81 76.3 1128.09 76.3H1121.79L1123.53 74.38V86.53ZM1150.47 94V90.76L1150.26 90.07V84.4C1150.26 83.3 1149.93 82.45 1149.27 81.85C1148.61 81.23 1147.61 80.92 1146.27 80.92C1145.37 80.92 1144.48 81.06 1143.6 81.34C1142.74 81.62 1142.01 82.01 1141.41 82.51L1139.94 79.78C1140.8 79.12 1141.82 78.63 1143 78.31C1144.2 77.97 1145.44 77.8 1146.72 77.8C1149.04 77.8 1150.83 78.36 1152.09 79.48C1153.37 80.58 1154.01 82.29 1154.01 84.61V94H1150.47ZM1145.43 94.21C1144.23 94.21 1143.18 94.01 1142.28 93.61C1141.38 93.19 1140.68 92.62 1140.18 91.9C1139.7 91.16 1139.46 90.33 1139.46 89.41C1139.46 88.51 1139.67 87.7 1140.09 86.98C1140.53 86.26 1141.24 85.69 1142.22 85.27C1143.2 84.85 1144.5 84.64 1146.12 84.64H1150.77V87.13H1146.39C1145.11 87.13 1144.25 87.34 1143.81 87.76C1143.37 88.16 1143.15 88.66 1143.15 89.26C1143.15 89.94 1143.42 90.48 1143.96 90.88C1144.5 91.28 1145.25 91.48 1146.21 91.48C1147.13 91.48 1147.95 91.27 1148.67 90.85C1149.41 90.43 1149.94 89.81 1150.26 88.99L1150.89 91.24C1150.53 92.18 1149.88 92.91 1148.94 93.43C1148.02 93.95 1146.85 94.21 1145.43 94.21ZM1166.11 100.03C1164.63 100.03 1163.18 99.83 1161.76 99.43C1160.36 99.05 1159.21 98.49 1158.31 97.75L1159.99 94.93C1160.69 95.51 1161.57 95.97 1162.63 96.31C1163.71 96.67 1164.8 96.85 1165.9 96.85C1167.66 96.85 1168.95 96.44 1169.77 95.62C1170.59 94.82 1171 93.61 1171 91.99V89.14L1171.3 85.51L1171.18 81.88V77.98H1174.75V91.57C1174.75 94.47 1174.01 96.6 1172.53 97.96C1171.05 99.34 1168.91 100.03 1166.11 100.03ZM1165.63 93.28C1164.11 93.28 1162.73 92.96 1161.49 92.32C1160.27 91.66 1159.3 90.75 1158.58 89.59C1157.88 88.43 1157.53 87.07 1157.53 85.51C1157.53 83.97 1157.88 82.62 1158.58 81.46C1159.3 80.3 1160.27 79.4 1161.49 78.76C1162.73 78.12 1164.11 77.8 1165.63 77.8C1166.99 77.8 1168.21 78.07 1169.29 78.61C1170.37 79.15 1171.23 79.99 1171.87 81.13C1172.53 82.27 1172.86 83.73 1172.86 85.51C1172.86 87.29 1172.53 88.76 1171.87 89.92C1171.23 91.06 1170.37 91.91 1169.29 92.47C1168.21 93.01 1166.99 93.28 1165.63 93.28ZM1166.2 90.1C1167.14 90.1 1167.98 89.91 1168.72 89.53C1169.46 89.13 1170.03 88.59 1170.43 87.91C1170.85 87.21 1171.06 86.41 1171.06 85.51C1171.06 84.61 1170.85 83.82 1170.43 83.14C1170.03 82.44 1169.46 81.91 1168.72 81.55C1167.98 81.17 1167.14 80.98 1166.2 80.98C1165.26 80.98 1164.41 81.17 1163.65 81.55C1162.91 81.91 1162.33 82.44 1161.91 83.14C1161.51 83.82 1161.31 84.61 1161.31 85.51C1161.31 86.41 1161.51 87.21 1161.91 87.91C1162.33 88.59 1162.91 89.13 1163.65 89.53C1164.41 89.91 1165.26 90.1 1166.2 90.1ZM1187.21 94.21C1185.43 94.21 1183.87 93.86 1182.53 93.16C1181.21 92.44 1180.18 91.46 1179.44 90.22C1178.72 88.98 1178.36 87.57 1178.36 85.99C1178.36 84.39 1178.71 82.98 1179.41 81.76C1180.13 80.52 1181.11 79.55 1182.35 78.85C1183.61 78.15 1185.04 77.8 1186.64 77.8C1188.2 77.8 1189.59 78.14 1190.81 78.82C1192.03 79.5 1192.99 80.46 1193.69 81.7C1194.39 82.94 1194.74 84.4 1194.74 86.08C1194.74 86.24 1194.73 86.42 1194.71 86.62C1194.71 86.82 1194.7 87.01 1194.68 87.19H1181.33V84.7H1192.7L1191.23 85.48C1191.25 84.56 1191.06 83.75 1190.66 83.05C1190.26 82.35 1189.71 81.8 1189.01 81.4C1188.33 81 1187.54 80.8 1186.64 80.8C1185.72 80.8 1184.91 81 1184.21 81.4C1183.53 81.8 1182.99 82.36 1182.59 83.08C1182.21 83.78 1182.02 84.61 1182.02 85.57V86.17C1182.02 87.13 1182.24 87.98 1182.68 88.72C1183.12 89.46 1183.74 90.03 1184.54 90.43C1185.34 90.83 1186.26 91.03 1187.3 91.03C1188.2 91.03 1189.01 90.89 1189.73 90.61C1190.45 90.33 1191.09 89.89 1191.65 89.29L1193.66 91.6C1192.94 92.44 1192.03 93.09 1190.93 93.55C1189.85 93.99 1188.61 94.21 1187.21 94.21ZM1214.16 94.21C1212.38 94.21 1210.82 93.86 1209.48 93.16C1208.16 92.44 1207.13 91.46 1206.39 90.22C1205.67 88.98 1205.31 87.57 1205.31 85.99C1205.31 84.39 1205.66 82.98 1206.36 81.76C1207.08 80.52 1208.06 79.55 1209.3 78.85C1210.56 78.15 1211.99 77.8 1213.59 77.8C1215.15 77.8 1216.54 78.14 1217.76 78.82C1218.98 79.5 1219.94 80.46 1220.64 81.7C1221.34 82.94 1221.69 84.4 1221.69 86.08C1221.69 86.24 1221.68 86.42 1221.66 86.62C1221.66 86.82 1221.65 87.01 1221.63 87.19H1208.28V84.7H1219.65L1218.18 85.48C1218.2 84.56 1218.01 83.75 1217.61 83.05C1217.21 82.35 1216.66 81.8 1215.96 81.4C1215.28 81 1214.49 80.8 1213.59 80.8C1212.67 80.8 1211.86 81 1211.16 81.4C1210.48 81.8 1209.94 82.36 1209.54 83.08C1209.16 83.78 1208.97 84.61 1208.97 85.57V86.17C1208.97 87.13 1209.19 87.98 1209.63 88.72C1210.07 89.46 1210.69 90.03 1211.49 90.43C1212.29 90.83 1213.21 91.03 1214.25 91.03C1215.15 91.03 1215.96 90.89 1216.68 90.61C1217.4 90.33 1218.04 89.89 1218.6 89.29L1220.61 91.6C1219.89 92.44 1218.98 93.09 1217.88 93.55C1216.8 93.99 1215.56 94.21 1214.16 94.21ZM1234.38 77.8C1235.66 77.8 1236.8 78.05 1237.8 78.55C1238.82 79.05 1239.62 79.82 1240.2 80.86C1240.78 81.88 1241.07 83.2 1241.07 84.82V94H1237.32V85.3C1237.32 83.88 1236.98 82.82 1236.3 82.12C1235.64 81.42 1234.71 81.07 1233.51 81.07C1232.63 81.07 1231.85 81.25 1231.17 81.61C1230.49 81.97 1229.96 82.51 1229.58 83.23C1229.22 83.93 1229.04 84.82 1229.04 85.9V94H1225.29V77.98H1228.86V82.3L1228.23 80.98C1228.79 79.96 1229.6 79.18 1230.66 78.64C1231.74 78.08 1232.98 77.8 1234.38 77.8ZM1261.47 94.21C1259.79 94.21 1258.29 93.86 1256.97 93.16C1255.67 92.44 1254.65 91.46 1253.91 90.22C1253.17 88.98 1252.8 87.57 1252.8 85.99C1252.8 84.39 1253.17 82.98 1253.91 81.76C1254.65 80.52 1255.67 79.55 1256.97 78.85C1258.29 78.15 1259.79 77.8 1261.47 77.8C1263.03 77.8 1264.4 78.12 1265.58 78.76C1266.78 79.38 1267.69 80.3 1268.31 81.52L1265.43 83.2C1264.95 82.44 1264.36 81.88 1263.66 81.52C1262.98 81.16 1262.24 80.98 1261.44 80.98C1260.52 80.98 1259.69 81.18 1258.95 81.58C1258.21 81.98 1257.63 82.56 1257.21 83.32C1256.79 84.06 1256.58 84.95 1256.58 85.99C1256.58 87.03 1256.79 87.93 1257.21 88.69C1257.63 89.43 1258.21 90 1258.95 90.4C1259.69 90.8 1260.52 91 1261.44 91C1262.24 91 1262.98 90.82 1263.66 90.46C1264.36 90.1 1264.95 89.54 1265.43 88.78L1268.31 90.46C1267.69 91.66 1266.78 92.59 1265.58 93.25C1264.4 93.89 1263.03 94.21 1261.47 94.21ZM1278.52 94.21C1276.88 94.21 1275.42 93.86 1274.14 93.16C1272.86 92.44 1271.85 91.46 1271.11 90.22C1270.37 88.98 1270 87.57 1270 85.99C1270 84.39 1270.37 82.98 1271.11 81.76C1271.85 80.52 1272.86 79.55 1274.14 78.85C1275.42 78.15 1276.88 77.8 1278.52 77.8C1280.18 77.8 1281.65 78.15 1282.93 78.85C1284.23 79.55 1285.24 80.51 1285.96 81.73C1286.7 82.95 1287.07 84.37 1287.07 85.99C1287.07 87.57 1286.7 88.98 1285.96 90.22C1285.24 91.46 1284.23 92.44 1282.93 93.16C1281.65 93.86 1280.18 94.21 1278.52 94.21ZM1278.52 91C1279.44 91 1280.26 90.8 1280.98 90.4C1281.7 90 1282.26 89.42 1282.66 88.66C1283.08 87.9 1283.29 87.01 1283.29 85.99C1283.29 84.95 1283.08 84.06 1282.66 83.32C1282.26 82.56 1281.7 81.98 1280.98 81.58C1280.26 81.18 1279.45 80.98 1278.55 80.98C1277.63 80.98 1276.81 81.18 1276.09 81.58C1275.39 81.98 1274.83 82.56 1274.41 83.32C1273.99 84.06 1273.78 84.95 1273.78 85.99C1273.78 87.01 1273.99 87.9 1274.41 88.66C1274.83 89.42 1275.39 90 1276.09 90.4C1276.81 90.8 1277.62 91 1278.52 91ZM1297.44 94.21C1296.08 94.21 1294.88 93.96 1293.84 93.46C1292.8 92.94 1291.99 92.16 1291.41 91.12C1290.83 90.06 1290.54 88.73 1290.54 87.13V77.98H1294.29V86.62C1294.29 88.06 1294.61 89.14 1295.25 89.86C1295.91 90.56 1296.84 90.91 1298.04 90.91C1298.92 90.91 1299.68 90.73 1300.32 90.37C1300.98 90.01 1301.49 89.47 1301.85 88.75C1302.23 88.03 1302.42 87.14 1302.42 86.08V77.98H1306.17V94H1302.6V89.68L1303.23 91C1302.69 92.04 1301.9 92.84 1300.86 93.4C1299.82 93.94 1298.68 94.21 1297.44 94.21ZM1311.08 94V77.98H1314.65V82.39L1314.23 81.1C1314.71 80.02 1315.46 79.2 1316.48 78.64C1317.52 78.08 1318.81 77.8 1320.35 77.8V81.37C1320.19 81.33 1320.04 81.31 1319.9 81.31C1319.76 81.29 1319.62 81.28 1319.48 81.28C1318.06 81.28 1316.93 81.7 1316.09 82.54C1315.25 83.36 1314.83 84.59 1314.83 86.23V94H1311.08ZM1328.62 94.21C1327.28 94.21 1325.99 94.04 1324.75 93.7C1323.53 93.34 1322.56 92.91 1321.84 92.41L1323.28 89.56C1324 90.02 1324.86 90.4 1325.86 90.7C1326.86 91 1327.86 91.15 1328.86 91.15C1330.04 91.15 1330.89 90.99 1331.41 90.67C1331.95 90.35 1332.22 89.92 1332.22 89.38C1332.22 88.94 1332.04 88.61 1331.68 88.39C1331.32 88.15 1330.85 87.97 1330.27 87.85C1329.69 87.73 1329.04 87.62 1328.32 87.52C1327.62 87.42 1326.91 87.29 1326.19 87.13C1325.49 86.95 1324.85 86.7 1324.27 86.38C1323.69 86.04 1323.22 85.59 1322.86 85.03C1322.5 84.47 1322.32 83.73 1322.32 82.81C1322.32 81.79 1322.61 80.91 1323.19 80.17C1323.77 79.41 1324.58 78.83 1325.62 78.43C1326.68 78.01 1327.93 77.8 1329.37 77.8C1330.45 77.8 1331.54 77.92 1332.64 78.16C1333.74 78.4 1334.65 78.74 1335.37 79.18L1333.93 82.03C1333.17 81.57 1332.4 81.26 1331.62 81.1C1330.86 80.92 1330.1 80.83 1329.34 80.83C1328.2 80.83 1327.35 81 1326.79 81.34C1326.25 81.68 1325.98 82.11 1325.98 82.63C1325.98 83.11 1326.16 83.47 1326.52 83.71C1326.88 83.95 1327.35 84.14 1327.93 84.28C1328.51 84.42 1329.15 84.54 1329.85 84.64C1330.57 84.72 1331.28 84.85 1331.98 85.03C1332.68 85.21 1333.32 85.46 1333.9 85.78C1334.5 86.08 1334.98 86.51 1335.34 87.07C1335.7 87.63 1335.88 88.36 1335.88 89.26C1335.88 90.26 1335.58 91.13 1334.98 91.87C1334.4 92.61 1333.57 93.19 1332.49 93.61C1331.41 94.01 1330.12 94.21 1328.62 94.21ZM1354.18 94.21C1352.64 94.21 1351.25 93.87 1350.01 93.19C1348.79 92.49 1347.83 91.53 1347.13 90.31C1346.43 89.09 1346.08 87.65 1346.08 85.99C1346.08 84.33 1346.43 82.89 1347.13 81.67C1347.83 80.45 1348.79 79.5 1350.01 78.82C1351.25 78.14 1352.64 77.8 1354.18 77.8C1355.52 77.8 1356.72 78.1 1357.78 78.7C1358.84 79.28 1359.68 80.17 1360.3 81.37C1360.92 82.57 1361.23 84.11 1361.23 85.99C1361.23 87.85 1360.93 89.39 1360.33 90.61C1359.73 91.81 1358.9 92.71 1357.84 93.31C1356.78 93.91 1355.56 94.21 1354.18 94.21ZM1354.63 91C1355.53 91 1356.33 90.8 1357.03 90.4C1357.75 90 1358.32 89.42 1358.74 88.66C1359.18 87.9 1359.4 87.01 1359.4 85.99C1359.4 84.95 1359.18 84.06 1358.74 83.32C1358.32 82.56 1357.75 81.98 1357.03 81.58C1356.33 81.18 1355.53 80.98 1354.63 80.98C1353.73 80.98 1352.92 81.18 1352.2 81.58C1351.5 81.98 1350.93 82.56 1350.49 83.32C1350.07 84.06 1349.86 84.95 1349.86 85.99C1349.86 87.01 1350.07 87.9 1350.49 88.66C1350.93 89.42 1351.5 90 1352.2 90.4C1352.92 90.8 1353.73 91 1354.63 91ZM1359.49 94V90.22L1359.64 85.96L1359.34 81.7V71.74H1363.06V94H1359.49ZM1375.53 94.21C1373.75 94.21 1372.19 93.86 1370.85 93.16C1369.53 92.44 1368.5 91.46 1367.76 90.22C1367.04 88.98 1366.68 87.57 1366.68 85.99C1366.68 84.39 1367.03 82.98 1367.73 81.76C1368.45 80.52 1369.43 79.55 1370.67 78.85C1371.93 78.15 1373.36 77.8 1374.96 77.8C1376.52 77.8 1377.91 78.14 1379.13 78.82C1380.35 79.5 1381.31 80.46 1382.01 81.7C1382.71 82.94 1383.06 84.4 1383.06 86.08C1383.06 86.24 1383.05 86.42 1383.03 86.62C1383.03 86.82 1383.02 87.01 1383 87.19H1369.65V84.7H1381.02L1379.55 85.48C1379.57 84.56 1379.38 83.75 1378.98 83.05C1378.58 82.35 1378.03 81.8 1377.33 81.4C1376.65 81 1375.86 80.8 1374.96 80.8C1374.04 80.8 1373.23 81 1372.53 81.4C1371.85 81.8 1371.31 82.36 1370.91 83.08C1370.53 83.78 1370.34 84.61 1370.34 85.57V86.17C1370.34 87.13 1370.56 87.98 1371 88.72C1371.44 89.46 1372.06 90.03 1372.86 90.43C1373.66 90.83 1374.58 91.03 1375.62 91.03C1376.52 91.03 1377.33 90.89 1378.05 90.61C1378.77 90.33 1379.41 89.89 1379.97 89.29L1381.98 91.6C1381.26 92.44 1380.35 93.09 1379.25 93.55C1378.17 93.99 1376.93 94.21 1375.53 94.21ZM1161.75 131.21C1160.07 131.21 1158.57 130.86 1157.25 130.16C1155.95 129.44 1154.93 128.46 1154.19 127.22C1153.45 125.98 1153.08 124.57 1153.08 122.99C1153.08 121.39 1153.45 119.98 1154.19 118.76C1154.93 117.52 1155.95 116.55 1157.25 115.85C1158.57 115.15 1160.07 114.8 1161.75 114.8C1163.31 114.8 1164.68 115.12 1165.86 115.76C1167.06 116.38 1167.97 117.3 1168.59 118.52L1165.71 120.2C1165.23 119.44 1164.64 118.88 1163.94 118.52C1163.26 118.16 1162.52 117.98 1161.72 117.98C1160.8 117.98 1159.97 118.18 1159.23 118.58C1158.49 118.98 1157.91 119.56 1157.49 120.32C1157.07 121.06 1156.86 121.95 1156.86 122.99C1156.86 124.03 1157.07 124.93 1157.49 125.69C1157.91 126.43 1158.49 127 1159.23 127.4C1159.97 127.8 1160.8 128 1161.72 128C1162.52 128 1163.26 127.82 1163.94 127.46C1164.64 127.1 1165.23 126.54 1165.71 125.78L1168.59 127.46C1167.97 128.66 1167.06 129.59 1165.86 130.25C1164.68 130.89 1163.31 131.21 1161.75 131.21ZM1178.79 131.21C1177.15 131.21 1175.69 130.86 1174.41 130.16C1173.13 129.44 1172.12 128.46 1171.38 127.22C1170.64 125.98 1170.27 124.57 1170.27 122.99C1170.27 121.39 1170.64 119.98 1171.38 118.76C1172.12 117.52 1173.13 116.55 1174.41 115.85C1175.69 115.15 1177.15 114.8 1178.79 114.8C1180.45 114.8 1181.92 115.15 1183.2 115.85C1184.5 116.55 1185.51 117.51 1186.23 118.73C1186.97 119.95 1187.34 121.37 1187.34 122.99C1187.34 124.57 1186.97 125.98 1186.23 127.22C1185.51 128.46 1184.5 129.44 1183.2 130.16C1181.92 130.86 1180.45 131.21 1178.79 131.21ZM1178.79 128C1179.71 128 1180.53 127.8 1181.25 127.4C1181.97 127 1182.53 126.42 1182.93 125.66C1183.35 124.9 1183.56 124.01 1183.56 122.99C1183.56 121.95 1183.35 121.06 1182.93 120.32C1182.53 119.56 1181.97 118.98 1181.25 118.58C1180.53 118.18 1179.72 117.98 1178.82 117.98C1177.9 117.98 1177.08 118.18 1176.36 118.58C1175.66 118.98 1175.1 119.56 1174.68 120.32C1174.26 121.06 1174.05 121.95 1174.05 122.99C1174.05 124.01 1174.26 124.9 1174.68 125.66C1175.1 126.42 1175.66 127 1176.36 127.4C1177.08 127.8 1177.89 128 1178.79 128ZM1200.02 114.8C1201.3 114.8 1202.44 115.05 1203.44 115.55C1204.46 116.05 1205.26 116.82 1205.84 117.86C1206.42 118.88 1206.71 120.2 1206.71 121.82V131H1202.96V122.3C1202.96 120.88 1202.62 119.82 1201.94 119.12C1201.28 118.42 1200.35 118.07 1199.15 118.07C1198.27 118.07 1197.49 118.25 1196.81 118.61C1196.13 118.97 1195.6 119.51 1195.22 120.23C1194.86 120.93 1194.68 121.82 1194.68 122.9V131H1190.93V114.98H1194.5V119.3L1193.87 117.98C1194.43 116.96 1195.24 116.18 1196.3 115.64C1197.38 115.08 1198.62 114.8 1200.02 114.8ZM1216.42 131.21C1215.08 131.21 1213.79 131.04 1212.55 130.7C1211.33 130.34 1210.36 129.91 1209.64 129.41L1211.08 126.56C1211.8 127.02 1212.66 127.4 1213.66 127.7C1214.66 128 1215.66 128.15 1216.66 128.15C1217.84 128.15 1218.69 127.99 1219.21 127.67C1219.75 127.35 1220.02 126.92 1220.02 126.38C1220.02 125.94 1219.84 125.61 1219.48 125.39C1219.12 125.15 1218.65 124.97 1218.07 124.85C1217.49 124.73 1216.84 124.62 1216.12 124.52C1215.42 124.42 1214.71 124.29 1213.99 124.13C1213.29 123.95 1212.65 123.7 1212.07 123.38C1211.49 123.04 1211.02 122.59 1210.66 122.03C1210.3 121.47 1210.12 120.73 1210.12 119.81C1210.12 118.79 1210.41 117.91 1210.99 117.17C1211.57 116.41 1212.38 115.83 1213.42 115.43C1214.48 115.01 1215.73 114.8 1217.17 114.8C1218.25 114.8 1219.34 114.92 1220.44 115.16C1221.54 115.4 1222.45 115.74 1223.17 116.18L1221.73 119.03C1220.97 118.57 1220.2 118.26 1219.42 118.1C1218.66 117.92 1217.9 117.83 1217.14 117.83C1216 117.83 1215.15 118 1214.59 118.34C1214.05 118.68 1213.78 119.11 1213.78 119.63C1213.78 120.11 1213.96 120.47 1214.32 120.71C1214.68 120.95 1215.15 121.14 1215.73 121.28C1216.31 121.42 1216.95 121.54 1217.65 121.64C1218.37 121.72 1219.08 121.85 1219.78 122.03C1220.48 122.21 1221.12 122.46 1221.7 122.78C1222.3 123.08 1222.78 123.51 1223.14 124.07C1223.5 124.63 1223.68 125.36 1223.68 126.26C1223.68 127.26 1223.38 128.13 1222.78 128.87C1222.2 129.61 1221.37 130.19 1220.29 130.61C1219.21 131.01 1217.92 131.21 1216.42 131.21ZM1232.94 131.21C1231.18 131.21 1229.82 130.76 1228.86 129.86C1227.9 128.94 1227.42 127.59 1227.42 125.81V111.44H1231.17V125.72C1231.17 126.48 1231.36 127.07 1231.74 127.49C1232.14 127.91 1232.69 128.12 1233.39 128.12C1234.23 128.12 1234.93 127.9 1235.49 127.46L1236.54 130.13C1236.1 130.49 1235.56 130.76 1234.92 130.94C1234.28 131.12 1233.62 131.21 1232.94 131.21ZM1224.78 118.1V115.1H1235.46V118.1H1224.78ZM1239.62 131V114.98H1243.19V119.39L1242.77 118.1C1243.25 117.02 1244 116.2 1245.02 115.64C1246.06 115.08 1247.35 114.8 1248.89 114.8V118.37C1248.73 118.33 1248.58 118.31 1248.44 118.31C1248.3 118.29 1248.16 118.28 1248.02 118.28C1246.6 118.28 1245.47 118.7 1244.63 119.54C1243.79 120.36 1243.37 121.59 1243.37 123.23V131H1239.62ZM1259 131.21C1257.64 131.21 1256.44 130.96 1255.4 130.46C1254.36 129.94 1253.55 129.16 1252.97 128.12C1252.39 127.06 1252.1 125.73 1252.1 124.13V114.98H1255.85V123.62C1255.85 125.06 1256.17 126.14 1256.81 126.86C1257.47 127.56 1258.4 127.91 1259.6 127.91C1260.48 127.91 1261.24 127.73 1261.88 127.37C1262.54 127.01 1263.05 126.47 1263.41 125.75C1263.79 125.03 1263.98 124.14 1263.98 123.08V114.98H1267.73V131H1264.16V126.68L1264.79 128C1264.25 129.04 1263.46 129.84 1262.42 130.4C1261.38 130.94 1260.24 131.21 1259 131.21ZM1279.99 131.21C1278.31 131.21 1276.81 130.86 1275.49 130.16C1274.19 129.44 1273.17 128.46 1272.43 127.22C1271.69 125.98 1271.32 124.57 1271.32 122.99C1271.32 121.39 1271.69 119.98 1272.43 118.76C1273.17 117.52 1274.19 116.55 1275.49 115.85C1276.81 115.15 1278.31 114.8 1279.99 114.8C1281.55 114.8 1282.92 115.12 1284.1 115.76C1285.3 116.38 1286.21 117.3 1286.83 118.52L1283.95 120.2C1283.47 119.44 1282.88 118.88 1282.18 118.52C1281.5 118.16 1280.76 117.98 1279.96 117.98C1279.04 117.98 1278.21 118.18 1277.47 118.58C1276.73 118.98 1276.15 119.56 1275.73 120.32C1275.31 121.06 1275.1 121.95 1275.1 122.99C1275.1 124.03 1275.31 124.93 1275.73 125.69C1276.15 126.43 1276.73 127 1277.47 127.4C1278.21 127.8 1279.04 128 1279.96 128C1280.76 128 1281.5 127.82 1282.18 127.46C1282.88 127.1 1283.47 126.54 1283.95 125.78L1286.83 127.46C1286.21 128.66 1285.3 129.59 1284.1 130.25C1282.92 130.89 1281.55 131.21 1279.99 131.21ZM1296.3 131.21C1294.54 131.21 1293.18 130.76 1292.22 129.86C1291.26 128.94 1290.78 127.59 1290.78 125.81V111.44H1294.53V125.72C1294.53 126.48 1294.72 127.07 1295.1 127.49C1295.5 127.91 1296.05 128.12 1296.75 128.12C1297.59 128.12 1298.29 127.9 1298.85 127.46L1299.9 130.13C1299.46 130.49 1298.92 130.76 1298.28 130.94C1297.64 131.12 1296.98 131.21 1296.3 131.21ZM1288.14 118.1V115.1H1298.82V118.1H1288.14ZM1302.99 131V114.98H1306.74V131H1302.99ZM1304.88 112.34C1304.18 112.34 1303.6 112.12 1303.14 111.68C1302.7 111.24 1302.48 110.71 1302.48 110.09C1302.48 109.45 1302.7 108.92 1303.14 108.5C1303.6 108.06 1304.18 107.84 1304.88 107.84C1305.58 107.84 1306.15 108.05 1306.59 108.47C1307.05 108.87 1307.28 109.38 1307.28 110C1307.28 110.66 1307.06 111.22 1306.62 111.68C1306.18 112.12 1305.6 112.34 1304.88 112.34ZM1318.86 131.21C1317.22 131.21 1315.76 130.86 1314.48 130.16C1313.2 129.44 1312.19 128.46 1311.45 127.22C1310.71 125.98 1310.34 124.57 1310.34 122.99C1310.34 121.39 1310.71 119.98 1311.45 118.76C1312.19 117.52 1313.2 116.55 1314.48 115.85C1315.76 115.15 1317.22 114.8 1318.86 114.8C1320.52 114.8 1321.99 115.15 1323.27 115.85C1324.57 116.55 1325.58 117.51 1326.3 118.73C1327.04 119.95 1327.41 121.37 1327.41 122.99C1327.41 124.57 1327.04 125.98 1326.3 127.22C1325.58 128.46 1324.57 129.44 1323.27 130.16C1321.99 130.86 1320.52 131.21 1318.86 131.21ZM1318.86 128C1319.78 128 1320.6 127.8 1321.32 127.4C1322.04 127 1322.6 126.42 1323 125.66C1323.42 124.9 1323.63 124.01 1323.63 122.99C1323.63 121.95 1323.42 121.06 1323 120.32C1322.6 119.56 1322.04 118.98 1321.32 118.58C1320.6 118.18 1319.79 117.98 1318.89 117.98C1317.97 117.98 1317.15 118.18 1316.43 118.58C1315.73 118.98 1315.17 119.56 1314.75 120.32C1314.33 121.06 1314.12 121.95 1314.12 122.99C1314.12 124.01 1314.33 124.9 1314.75 125.66C1315.17 126.42 1315.73 127 1316.43 127.4C1317.15 127.8 1317.96 128 1318.86 128ZM1340.09 114.8C1341.37 114.8 1342.51 115.05 1343.51 115.55C1344.53 116.05 1345.33 116.82 1345.91 117.86C1346.49 118.88 1346.78 120.2 1346.78 121.82V131H1343.03V122.3C1343.03 120.88 1342.69 119.82 1342.01 119.12C1341.35 118.42 1340.42 118.07 1339.22 118.07C1338.34 118.07 1337.56 118.25 1336.88 118.61C1336.2 118.97 1335.67 119.51 1335.29 120.23C1334.93 120.93 1334.75 121.82 1334.75 122.9V131H1331V114.98H1334.57V119.3L1333.94 117.98C1334.5 116.96 1335.31 116.18 1336.37 115.64C1337.45 115.08 1338.69 114.8 1340.09 114.8Z" fill="white"/>
</svg>
